<?xml version="1.0" standalone="no"?>
<!DOCTYPE svg PUBLIC "-//W3C//DTD SVG 20010904//EN"
 "http://www.w3.org/TR/2001/REC-SVG-20010904/DTD/svg10.dtd">
<svg version="1.0" xmlns="http://www.w3.org/2000/svg"
 width="1032.000000pt" height="745.000000pt" viewBox="0 0 1032.000000 745.000000"
 preserveAspectRatio="xMidYMid meet">

<g transform="translate(0.000000,745.000000) scale(0.100000,-0.100000)"
fill="#000000" stroke="none">
<path d="M0 3725 l0 -3725 5160 0 5160 0 0 3725 0 3725 -5160 0 -5160 0 0
-3725z m6368 2147 c35 -97 85 -238 112 -312 27 -74 85 -238 130 -365 45 -126
104 -291 131 -366 27 -75 49 -150 49 -167 l0 -32 -189 0 -188 0 -17 48 c-10
26 -24 62 -31 80 l-15 32 -240 0 -240 0 0 -75 0 -75 -55 0 c-55 0 -55 0 -49
28 4 15 15 49 25 75 16 41 19 77 19 252 0 112 -3 206 -8 209 -4 2 -119 -79
-255 -180 -136 -101 -253 -184 -260 -184 -6 0 -123 83 -260 185 -136 102 -250
185 -252 185 -3 0 -5 -128 -5 -285 l0 -285 -25 0 -25 0 2 567 c3 507 5 568 19
571 8 1 130 -85 270 -192 154 -119 263 -196 276 -196 14 0 118 73 275 195 187
143 260 195 281 195 l27 0 0 -397 c0 -238 4 -393 9 -388 5 6 14 26 19 45 6 19
43 125 82 235 40 110 75 211 80 225 4 14 31 90 60 170 28 80 70 198 92 263 38
109 43 117 67 117 25 0 29 -9 89 -178z m-1068 -1642 c24 -24 24 -29 4 -58 -19
-28 -48 -28 -68 -1 -16 23 -12 47 12 67 21 16 29 15 52 -8z m190 2 c18 -14 21
-25 16 -45 -7 -31 -48 -46 -71 -27 -21 17 -19 67 3 79 23 14 27 14 52 -7z
m1470 -2 c25 -25 25 -42 0 -65 -27 -24 -68 -13 -76 22 -5 20 -2 31 16 45 28
23 35 23 60 -2z m-5130 -191 l0 -60 -22 15 c-19 13 -60 16 -250 16 l-228 0 0
-120 0 -120 157 0 c132 0 159 3 175 17 17 15 18 13 18 -52 0 -65 -1 -67 -18
-52 -16 14 -43 17 -175 17 l-157 0 0 -130 0 -130 237 0 c206 0 239 2 255 17
17 15 18 13 18 -53 -1 -60 -2 -67 -14 -51 -12 15 -39 17 -304 17 -261 0 -333
6 -287 24 13 5 15 51 15 327 0 295 -1 323 -17 335 -15 11 29 13 273 14 247 0
293 2 304 15 7 8 14 15 16 15 2 0 4 -27 4 -61z m720 1 c0 -54 -12 -79 -22 -47
-4 9 -62 12 -249 12 l-244 0 -3 -117 -3 -118 170 0 c102 0 172 4 176 10 15 25
25 5 25 -50 0 -57 -11 -78 -24 -45 -4 13 -34 15 -176 15 l-170 0 0 -144 c0
-115 3 -146 15 -156 28 -23 16 -30 -50 -30 -64 0 -75 6 -55 26 15 15 16 647 1
652 -6 2 -11 8 -11 13 0 5 123 9 295 9 254 0 296 2 301 15 13 33 24 12 24 -45z
m-2060 20 c0 -5 -4 -10 -10 -10 -5 0 -10 -6 -10 -12 0 -15 243 -498 250 -498
3 0 61 111 128 246 117 235 122 247 106 265 -17 18 -15 19 76 19 90 0 92 -1
77 -18 -15 -16 -17 -55 -17 -336 0 -272 2 -317 15 -322 35 -14 10 -24 -55 -24
-72 0 -82 4 -55 24 13 9 15 49 13 283 l-3 272 -50 -96 c-27 -54 -93 -183 -146
-287 l-97 -190 -143 285 -144 284 -3 -270 c-2 -231 0 -272 13 -281 23 -17 7
-24 -57 -24 -59 0 -70 8 -43 30 22 19 22 621 0 644 -8 8 -15 17 -15 20 0 3 38
6 85 6 50 0 85 -4 85 -10z m2422 -2 c-7 -7 -12 -18 -12 -26 0 -30 271 -607
295 -629 14 -12 25 -25 25 -28 0 -7 -145 -6 -153 2 -4 3 1 11 9 18 15 10 13
20 -18 91 l-34 79 -191 3 -190 2 -38 -82 c-33 -73 -35 -83 -21 -93 9 -7 16
-14 16 -17 0 -7 -129 -10 -140 -3 -5 3 1 16 14 28 24 22 296 599 296 628 0 8
-5 20 -12 27 -9 9 8 12 77 12 69 0 86 -3 77 -12z m1138 2 c0 -5 -4 -10 -10
-10 -5 0 -10 -5 -10 -12 0 -9 97 -225 251 -556 26 -56 45 -86 59 -89 11 -3 17
-9 14 -14 -7 -13 -154 -11 -154 1 0 6 5 10 10 10 18 0 11 36 -22 109 l-31 71
-191 -2 -190 -3 -35 -79 c-33 -73 -34 -79 -18 -91 26 -19 6 -27 -61 -24 -71 3
-77 6 -53 27 19 17 301 615 301 639 0 7 -4 13 -10 13 -5 0 -10 5 -10 10 0 6
33 10 80 10 47 0 80 -4 80 -10z m470 4 c0 -3 -7 -12 -15 -20 -13 -13 -15 -61
-15 -310 l0 -294 237 0 c206 0 239 2 255 17 17 15 18 14 18 -45 0 -35 -4 -62
-10 -62 -5 0 -10 5 -10 10 0 6 -105 10 -295 10 -162 0 -295 3 -295 8 0 4 7 16
15 26 22 30 22 617 0 640 -8 8 -15 17 -15 20 0 3 29 6 65 6 36 0 65 -3 65 -6z
m628 -8 c-16 -12 -18 -37 -18 -271 0 -296 1 -300 83 -335 43 -19 65 -21 171
-18 94 2 130 7 159 22 65 32 67 44 67 327 0 221 -2 255 -17 271 -15 17 -13 18
58 18 68 -1 72 -2 54 -16 -19 -14 -20 -30 -25 -287 -3 -186 -9 -279 -17 -293
-21 -37 -81 -83 -125 -96 -26 -8 -95 -13 -178 -13 -120 1 -141 3 -188 24 -60
27 -97 66 -112 119 -5 21 -10 143 -10 277 0 201 -3 244 -16 263 l-15 22 73 0
c63 -1 71 -2 56 -14z m832 5 c0 -5 -6 -11 -12 -14 -9 -3 28 -85 110 -250 67
-136 127 -249 132 -252 10 -6 250 466 250 491 0 8 -4 14 -10 14 -5 0 -10 5
-10 10 0 6 35 10 85 10 47 0 85 -3 85 -6 0 -3 -7 -12 -15 -20 -22 -23 -22
-610 0 -640 23 -31 19 -34 -50 -34 -69 0 -73 3 -50 34 12 16 15 66 15 272 0
154 -4 255 -10 259 -5 3 -73 -121 -151 -277 l-142 -283 -146 290 -146 290 -3
-269 c-2 -229 0 -272 13 -286 8 -9 15 -20 15 -23 0 -4 -29 -7 -65 -7 -61 0
-84 11 -50 24 13 5 15 50 15 322 0 281 -2 320 -17 336 -15 17 -13 18 70 18 48
0 87 -4 87 -9z m862 -11 c-22 -20 -22 -25 -22 -323 0 -254 2 -306 15 -324 19
-28 12 -32 -58 -32 -58 0 -68 7 -42 29 13 11 15 59 15 321 0 260 -2 310 -15
323 -8 8 -15 17 -15 20 0 3 32 6 72 6 l72 0 -22 -20z m308 12 c0 -4 -5 -13
-10 -18 -7 -7 -2 -22 17 -47 51 -68 408 -486 416 -486 4 -1 7 117 7 261 0 229
-2 264 -17 280 -15 17 -13 18 50 18 63 0 86 -11 52 -24 -13 -5 -15 -49 -15
-319 0 -267 2 -316 15 -327 27 -22 16 -27 -60 -29 -73 -2 -86 4 -64 26 7 7 8
17 3 26 -5 9 -115 138 -244 288 l-235 273 -3 -284 c-2 -241 0 -286 13 -300 24
-26 19 -30 -44 -30 -58 0 -86 12 -56 24 13 5 15 50 15 322 0 281 -2 320 -17
336 -15 17 -12 18 80 18 54 0 97 -4 97 -8z m717 -10 c-15 -16 -15 -20 4 -52
33 -54 180 -250 187 -250 4 0 14 11 23 23 171 240 183 259 171 278 -12 18 -7
19 144 19 152 0 157 -1 141 -18 -15 -16 -17 -50 -17 -271 0 -293 1 -296 81
-330 42 -19 71 -23 153 -23 115 0 174 12 213 46 l28 24 3 276 c2 187 0 276 -8
276 -5 0 -10 5 -10 10 0 6 29 10 68 10 61 -1 65 -2 48 -15 -18 -14 -20 -32
-23 -272 -2 -142 -8 -272 -14 -290 -14 -43 -78 -99 -131 -115 -27 -8 -95 -13
-178 -13 -120 1 -141 3 -188 24 -60 27 -97 66 -112 119 -5 21 -10 145 -10 283
0 203 -3 249 -15 259 -34 29 -72 -7 -222 -215 l-108 -150 -3 -128 c-3 -104 -1
-133 12 -152 9 -13 16 -27 16 -30 0 -3 -29 -5 -65 -5 -36 0 -65 2 -65 5 0 3 7
16 15 28 11 17 14 52 12 152 l-2 130 -116 152 c-144 188 -165 213 -178 213 -6
0 -11 5 -11 10 0 6 36 10 87 10 82 0 85 -1 70 -18z m1491 -2 c-11 -18 2 -50
110 -265 67 -135 126 -244 130 -241 4 2 61 113 127 245 105 212 118 244 107
261 -12 19 -10 20 80 20 80 -1 90 -3 76 -14 -17 -12 -18 -40 -18 -335 0 -276
2 -322 15 -327 8 -4 12 -10 9 -15 -6 -10 -134 -13 -134 -3 0 3 7 12 15 20 13
13 15 58 15 280 0 145 -3 264 -7 264 -5 0 -56 -96 -116 -213 -59 -117 -124
-244 -144 -282 l-36 -69 -138 279 c-76 153 -143 283 -149 289 -7 7 -10 -74
-10 -261 0 -228 2 -272 15 -283 27 -22 16 -30 -44 -30 -58 0 -86 12 -56 24 13
5 15 51 15 327 0 295 -1 323 -17 335 -15 11 -5 13 75 14 90 0 92 -1 80 -20z
m-288 -985 l0 -45 -3582 2 -3583 3 -2 30 c-2 17 -1 36 2 43 3 9 730 12 3585
12 l3580 0 0 -45z m-5826 -223 c8 -13 -11 -35 -23 -28 -16 10 -14 36 3 36 8 0
17 -4 20 -8z m386 -12 c0 -11 -7 -20 -15 -20 -8 0 -15 9 -15 20 0 11 7 20 15
20 8 0 15 -9 15 -20z m696 9 c10 -17 -13 -36 -27 -22 -12 12 -4 33 11 33 5 0
12 -5 16 -11z m2159 -9 c0 -8 -8 -16 -17 -18 -13 -2 -18 3 -18 18 0 15 5 20
18 18 9 -2 17 -10 17 -18z m75 0 c0 -11 -7 -20 -15 -20 -8 0 -15 9 -15 20 0
11 7 20 15 20 8 0 15 -9 15 -20z m533 14 c9 -10 -4 -34 -19 -34 -8 0 -14 9
-14 20 0 19 19 27 33 14z m77 -14 c0 -11 -7 -20 -15 -20 -8 0 -15 9 -15 20 0
11 7 20 15 20 8 0 15 -9 15 -20z m1346 9 c10 -17 -13 -36 -27 -22 -12 12 -4
33 11 33 5 0 12 -5 16 -11z m-6103 -119 c18 -38 35 -69 38 -70 3 0 20 32 39
70 23 48 39 70 52 70 10 0 18 -2 18 -5 0 -3 -20 -41 -45 -84 -41 -71 -45 -84
-45 -144 0 -60 -2 -67 -20 -67 -18 0 -20 7 -20 66 0 60 -5 75 -45 150 -42 77
-44 84 -25 84 16 0 28 -16 53 -70z m380 55 c-2 -5 -29 -12 -60 -15 l-58 -5 0
-45 0 -45 58 -3 c77 -4 72 -26 -7 -30 l-57 -3 3 -52 3 -52 63 -3 c46 -2 62 -7
62 -17 0 -12 -17 -15 -80 -15 l-80 0 0 150 0 151 78 -3 c45 -2 76 -7 75 -13z
m212 -104 l70 -113 3 116 c2 94 5 116 17 116 13 0 15 -25 15 -151 0 -138 -1
-150 -17 -147 -10 2 -46 48 -80 103 -99 161 -92 159 -93 18 0 -103 -3 -123
-15 -123 -13 0 -15 23 -15 151 0 150 0 150 22 147 17 -2 42 -33 93 -117z m237
-11 c0 -69 -1 -135 -1 -147 -1 -14 -7 -23 -16 -23 -13 0 -15 23 -15 151 0 136
2 150 17 147 15 -3 17 -18 15 -128z m148 -5 l0 -135 65 0 c51 0 65 -3 65 -15
0 -12 -16 -15 -85 -15 l-85 0 0 143 c0 79 3 147 7 150 3 4 12 7 20 7 10 0 13
-29 13 -135z m240 -15 c0 -127 -2 -150 -15 -150 -13 0 -15 23 -15 150 0 127 2
150 15 150 13 0 15 -23 15 -150z m140 84 c0 -36 4 -64 9 -62 5 2 32 31 61 66
32 38 59 62 72 62 17 0 16 -4 -14 -41 -18 -22 -42 -51 -52 -64 l-19 -24 50
-73 c68 -100 67 -98 44 -98 -14 0 -35 21 -67 70 -25 39 -49 70 -53 70 -20 0
-31 -30 -31 -82 0 -51 -2 -58 -20 -58 -19 0 -20 7 -20 150 0 143 1 150 20 150
18 0 20 -7 20 -66z m424 60 c30 -11 5 -24 -48 -24 -65 0 -100 -24 -117 -81
-28 -91 30 -162 125 -157 63 4 76 -19 17 -28 -40 -6 -51 -17 -31 -29 6 -3 10
-17 10 -30 0 -18 -7 -26 -26 -31 -14 -4 -30 -2 -37 5 -8 8 -4 11 16 11 29 0
37 17 12 26 -9 4 -13 13 -10 23 3 12 -7 22 -37 36 -25 12 -50 33 -61 52 -41
71 -14 178 52 213 35 19 104 26 135 14z m136 -144 c0 -143 -1 -150 -20 -150
-19 0 -20 7 -20 150 0 143 1 150 20 150 19 0 20 -7 20 -150z m327 35 c20 -63
40 -115 44 -115 3 0 18 36 32 79 42 127 54 151 76 151 24 0 28 -18 37 -177 5
-105 4 -123 -9 -123 -18 0 -27 49 -27 158 0 45 -3 82 -7 82 -5 0 -26 -53 -49
-118 -25 -70 -47 -118 -56 -120 -10 -2 -25 31 -53 120 -44 136 -52 136 -54 -2
-2 -90 -8 -120 -28 -120 -12 0 -14 14 -9 88 15 212 15 212 41 212 21 0 27 -12
62 -115z m443 100 c0 -12 -13 -15 -61 -15 l-60 0 3 -47 3 -48 58 -3 c77 -4 72
-26 -7 -30 l-57 -3 3 -52 3 -52 63 -3 c46 -2 62 -7 62 -17 0 -12 -17 -15 -85
-15 l-85 0 0 134 c0 74 3 141 6 150 9 23 154 24 154 1z m290 0 c0 -11 -12 -15
-45 -15 l-45 0 0 -135 c0 -128 -1 -135 -20 -135 -19 0 -20 7 -20 134 l0 135
-42 3 c-23 2 -43 9 -46 16 -3 9 23 12 107 12 92 0 111 -3 111 -15z m196 -97
c66 -193 65 -188 44 -188 -13 0 -23 13 -32 43 l-15 42 -56 3 -56 3 -12 -42
c-12 -38 -32 -59 -46 -46 -3 3 17 71 43 151 43 129 51 146 70 146 19 0 27 -15
60 -112z m186 -20 l3 -133 63 -3 c46 -2 62 -7 62 -17 0 -12 -17 -15 -80 -15
l-80 0 0 150 c0 125 2 150 15 150 12 0 15 -24 17 -132z m533 112 c0 -11 -10
-14 -43 -11 -56 4 -99 -15 -117 -50 -20 -37 -19 -114 1 -144 20 -31 75 -49
125 -41 30 5 39 3 39 -8 0 -16 -21 -26 -56 -26 -27 0 -29 -7 -9 -34 19 -25 3
-56 -30 -56 -14 0 -25 5 -25 10 0 6 9 10 20 10 11 0 20 7 20 15 0 8 -4 15 -10
15 -5 0 -10 8 -10 18 0 11 -16 26 -43 39 -102 49 -104 202 -5 263 41 25 143
25 143 0z m277 -1 c109 -78 53 -279 -77 -279 -48 0 -93 29 -115 74 -35 74 -21
148 39 199 42 35 108 37 153 6z m345 6 c-4 -8 -38 -62 -77 -120 -39 -58 -73
-112 -77 -120 -4 -12 9 -15 76 -15 65 0 81 -3 81 -15 0 -12 -19 -15 -111 -15
-94 0 -110 2 -106 15 4 8 38 62 77 120 39 58 73 112 76 120 5 11 -8 15 -62 17
-43 2 -69 8 -72 16 -3 9 21 12 98 12 86 0 101 -2 97 -15z m113 -94 c0 -94 3
-112 21 -135 44 -56 118 -21 120 57 2 169 4 182 22 185 18 4 18 -4 15 -118
l-3 -122 -34 -30 c-30 -26 -39 -30 -78 -25 -80 9 -103 52 -103 198 0 87 3 99
27 99 10 0 13 -25 13 -109z m386 -13 l40 -122 43 122 c38 108 45 122 66 122
22 0 24 -4 29 -87 4 -49 9 -116 11 -150 5 -58 4 -63 -15 -63 -18 0 -20 7 -21
63 -1 34 -4 91 -8 127 -5 53 -8 60 -15 40 -68 -203 -80 -231 -93 -228 -9 2
-29 45 -50 113 -19 61 -39 114 -44 120 -5 5 -9 -13 -9 -45 0 -108 -12 -190
-27 -190 -13 0 -14 20 -8 133 8 158 10 167 38 167 20 0 28 -15 63 -122z m332
-16 l3 -132 59 0 c47 0 60 -3 60 -15 0 -12 -16 -15 -80 -15 l-80 0 0 151 c0
138 1 150 18 147 15 -3 17 -19 20 -136z m362 123 c0 -12 -13 -15 -61 -15 l-60
0 3 -47 3 -48 55 -5 c70 -6 67 -24 -5 -28 l-55 -3 0 -54 0 -55 65 0 c51 0 65
-3 65 -15 0 -12 -16 -15 -85 -15 l-85 0 0 150 0 150 80 0 c64 0 80 -3 80 -15z
m255 -10 c32 -31 33 -78 2 -109 -21 -20 -22 -26 -10 -42 7 -10 18 -36 24 -57
5 -21 13 -45 16 -53 3 -9 -2 -14 -15 -14 -15 0 -22 11 -32 48 -15 61 -35 82
-77 82 l-33 0 0 -65 c0 -58 -2 -65 -20 -65 -19 0 -20 7 -20 143 0 79 3 147 7
150 3 4 35 7 70 7 55 0 68 -4 88 -25z m145 -125 c0 -143 -1 -150 -20 -150 -19
0 -20 7 -20 150 0 143 1 150 20 150 19 0 20 -7 20 -150z"/>
<path d="M6256 5848 c-8 -24 -34 -96 -58 -162 l-42 -119 35 -101 c19 -55 75
-212 124 -348 l89 -248 118 0 c100 0 118 2 118 15 0 14 -52 168 -140 410 -16
44 -42 118 -59 165 -155 441 -151 430 -161 430 -5 0 -15 -19 -24 -42z"/>
<path d="M4770 5486 l0 -183 239 -182 c132 -99 250 -185 263 -190 13 -4 30 -6
38 -2 14 5 109 77 370 278 52 41 103 80 113 88 15 13 17 35 17 189 0 98 -4
177 -9 181 -6 3 -115 -73 -243 -170 -190 -142 -239 -174 -266 -175 -27 0 -72
30 -265 175 -127 96 -237 175 -244 175 -10 0 -13 -40 -13 -184z"/>
<path d="M6105 5423 c-26 -67 -195 -537 -195 -544 0 -5 92 -9 205 -9 165 0
205 3 205 13 0 8 -15 56 -34 108 -19 52 -48 135 -66 184 -71 202 -95 265 -101
265 -4 0 -10 -8 -14 -17z"/>
<path d="M6440 4784 c0 -4 5 -24 12 -45 l11 -39 124 0 124 0 -7 23 c-22 72
-12 67 -144 67 -66 0 -120 -3 -120 -6z"/>
<path d="M2752 3811 c-40 -88 -72 -162 -72 -165 0 -3 69 -6 154 -6 l154 0 -73
162 c-40 89 -77 164 -82 165 -5 2 -41 -68 -81 -156z"/>
<path d="M3936 3918 c-13 -29 -47 -104 -74 -165 l-51 -113 154 0 c85 0 155 2
155 5 0 3 -17 42 -38 88 -21 45 -54 117 -73 159 -18 43 -37 78 -42 78 -4 0
-18 -24 -31 -52z"/>
<path d="M5506 2695 c-9 -30 -19 -61 -22 -70 -5 -12 3 -15 40 -15 25 0 46 2
46 5 0 11 -42 135 -45 135 -2 0 -11 -25 -19 -55z"/>
<path d="M6457 2749 c-26 -15 -47 -63 -47 -109 0 -104 97 -158 161 -89 25 27
29 39 29 89 0 48 -5 64 -26 89 -20 24 -34 31 -62 31 -21 0 -45 -5 -55 -11z"/>
<path d="M8263 2764 c-8 -4 -13 -26 -13 -60 l0 -54 36 0 c53 0 74 15 74 54 0
19 -6 39 -13 45 -17 13 -67 22 -84 15z"/>
</g>
</svg>
