<?xml version="1.0" standalone="no"?>
<!DOCTYPE svg PUBLIC "-//W3C//DTD SVG 20010904//EN"
 "http://www.w3.org/TR/2001/REC-SVG-20010904/DTD/svg10.dtd">
<svg version="1.0" xmlns="http://www.w3.org/2000/svg"
 width="1600.000000pt" height="1142.000000pt" viewBox="0 0 1600.000000 1142.000000"
 preserveAspectRatio="xMidYMid meet">

<g transform="translate(0.000000,1142.000000) scale(0.100000,-0.100000)"
fill="#000000" stroke="none">
<path d="M0 5710 l0 -5710 8000 0 8000 0 0 5710 0 5710 -8000 0 -8000 0 0
-5710z m9024 1748 c10 -29 38 -107 61 -173 24 -66 80 -223 125 -350 45 -126
104 -293 132 -370 27 -77 63 -178 80 -225 16 -47 36 -102 44 -123 8 -20 14
-58 14 -82 l0 -45 -184 0 -184 0 -18 48 c-9 26 -23 62 -30 80 l-13 32 -240 0
-241 0 0 -75 0 -75 -59 0 -59 0 24 66 c23 63 24 80 24 285 0 121 -2 219 -5
219 -3 0 -114 -82 -247 -181 -133 -100 -248 -184 -257 -186 -9 -2 -120 74
-266 183 l-250 186 -3 -286 -2 -286 -25 0 -25 0 0 570 0 570 23 0 c19 0 134
-85 452 -335 39 -30 79 -55 90 -55 11 0 134 88 273 195 197 152 259 195 282
195 l30 0 2 -397 c3 -384 4 -396 19 -348 9 28 40 114 68 193 95 265 153 427
166 467 15 47 110 312 120 338 4 10 18 17 34 17 24 0 29 -7 45 -52z m-1026
-1760 c7 -7 12 -24 12 -38 0 -47 -37 -65 -72 -33 -22 20 -23 41 -1 65 19 21
44 23 61 6z m198 -13 c15 -23 15 -27 0 -50 -9 -14 -25 -25 -36 -25 -11 0 -27
11 -36 25 -15 23 -15 27 0 50 9 14 25 25 36 25 11 0 27 -11 36 -25z m1468 3
c9 -12 16 -26 16 -30 0 -13 -39 -48 -54 -48 -40 0 -62 70 -28 89 27 16 50 13
66 -11z m-5134 -188 c0 -64 -3 -69 -26 -45 -13 12 -54 15 -245 15 l-229 0 0
-120 0 -120 160 0 c134 0 162 3 166 15 13 34 24 11 24 -50 0 -61 -11 -84 -24
-50 -4 12 -32 15 -166 15 l-160 0 0 -130 0 -130 234 0 c195 0 237 3 250 15 23
24 26 19 26 -45 0 -64 -3 -68 -34 -45 -16 12 -70 15 -305 15 -240 1 -283 3
-268 14 16 12 17 40 17 326 0 278 -2 316 -17 332 -16 17 -7 18 270 18 239 0
288 2 299 15 23 25 28 17 28 -45z m720 0 c0 -64 -3 -69 -26 -45 -13 12 -55 15
-255 15 l-239 0 0 -120 0 -120 164 0 c133 0 166 3 176 15 23 28 30 16 30 -50
0 -61 -13 -85 -26 -50 -5 13 -34 15 -175 15 l-169 0 0 -142 c0 -118 3 -145 17
-160 15 -17 13 -18 -58 -18 -64 1 -72 2 -56 14 16 12 17 40 17 326 0 278 -2
316 -17 332 -16 17 -6 18 279 18 251 0 297 2 308 15 22 27 30 16 30 -45z
m-2072 11 c-11 -17 4 -52 111 -263 68 -134 125 -245 127 -247 1 -2 58 107 126
243 108 216 121 248 110 266 -12 19 -10 20 80 20 80 -1 90 -3 76 -14 -17 -12
-18 -40 -18 -331 0 -291 1 -319 18 -331 15 -12 7 -13 -57 -14 -71 0 -73 1 -57
18 15 17 16 48 14 288 l-3 269 -146 -290 -146 -290 -146 290 -146 290 0 -277
c-1 -254 0 -278 17 -287 13 -8 -2 -10 -58 -10 -56 0 -71 2 -57 10 16 9 17 36
17 331 0 294 -1 322 -17 334 -15 11 -5 13 75 14 89 0 92 -1 80 -19z m2429 2
c-16 -19 -22 -5 118 -308 15 -33 54 -118 86 -190 33 -71 71 -140 85 -152 l25
-23 -82 0 c-65 0 -80 3 -71 12 19 19 15 43 -20 113 l-32 65 -190 -2 -189 -3
-35 -79 c-33 -75 -33 -80 -16 -93 15 -11 7 -13 -62 -13 -77 0 -78 1 -57 18 13
10 81 146 164 326 119 259 140 312 130 328 -11 17 -6 18 75 18 82 0 86 -1 71
-17z m1132 -1 c-12 -19 12 -74 241 -568 27 -58 45 -84 61 -90 18 -7 4 -10 -56
-14 -86 -5 -107 -2 -81 12 22 12 21 19 -16 104 l-33 74 -191 0 -190 0 -32 -72
c-37 -84 -38 -93 -14 -107 12 -8 -5 -10 -66 -11 l-83 0 25 23 c15 13 83 148
167 331 136 293 142 309 124 322 -16 12 -8 14 68 14 82 0 87 -1 76 -18z m468
0 c-15 -16 -17 -53 -17 -315 l0 -297 234 0 c195 0 237 3 250 15 23 24 26 19
26 -45 0 -54 -12 -79 -22 -47 -4 9 -73 13 -294 14 -159 2 -293 3 -299 3 -5 0
-2 7 8 14 16 12 17 40 17 331 0 291 -1 319 -17 331 -16 12 -8 13 56 14 71 0
73 -1 58 -18z m638 2 c-19 -14 -20 -27 -20 -267 0 -228 2 -255 19 -283 31 -51
76 -67 203 -72 127 -5 193 11 234 54 24 25 24 27 27 286 3 234 1 262 -14 279
-17 18 -15 19 54 19 l72 0 -20 -20 c-19 -19 -20 -33 -20 -273 0 -242 -1 -255
-22 -297 -39 -77 -102 -106 -249 -117 -155 -11 -272 23 -326 94 l-28 36 -5
275 c-5 256 -6 275 -24 288 -18 12 -11 14 60 14 73 -1 77 -2 59 -16z m824 0
c-11 -13 5 -52 112 -265 68 -137 126 -249 129 -249 3 0 61 111 128 246 116
234 122 248 106 265 -17 18 -14 19 76 19 90 0 92 -1 77 -18 -15 -16 -17 -54
-17 -327 0 -273 2 -311 17 -327 15 -17 13 -18 -58 -18 -64 1 -72 2 -56 14 16
12 17 35 15 284 l-3 271 -85 -167 c-47 -91 -113 -220 -147 -286 l-61 -120
-144 289 -143 290 -3 -269 c-2 -240 -1 -271 14 -288 16 -17 14 -18 -54 -18
l-72 0 20 20 c19 19 20 33 20 325 0 292 -1 306 -20 325 l-20 20 91 0 c82 0 90
-2 78 -16z m873 0 c-22 -15 -22 -16 -22 -329 0 -313 0 -314 22 -329 21 -15 18
-16 -57 -16 -59 1 -75 3 -62 11 16 9 17 36 17 331 0 294 -1 322 -17 334 -16
11 -7 13 62 14 75 0 78 -1 57 -16z m308 6 c0 -5 -5 -10 -11 -10 -6 0 -9 -6 -7
-14 2 -8 102 -131 223 -273 l220 -258 3 264 c2 235 1 266 -14 283 -16 17 -15
18 51 18 65 0 67 -1 52 -18 -15 -16 -17 -54 -17 -327 0 -273 2 -311 17 -327
15 -17 13 -18 -68 -18 -55 0 -79 3 -69 10 11 7 12 15 5 34 -6 14 -113 146
-240 292 l-230 267 -3 -283 c-2 -253 -1 -285 14 -302 16 -17 14 -18 -57 -18
-69 0 -72 1 -51 16 22 15 22 16 22 326 0 276 -2 314 -17 330 -15 17 -12 18 80
18 58 0 97 -4 97 -10z m717 -4 c-16 -12 -17 -18 -6 -38 14 -27 189 -268 194
-268 4 0 183 250 200 279 5 9 2 19 -10 28 -16 11 5 13 146 13 138 -1 161 -3
147 -14 -16 -12 -18 -37 -18 -271 0 -221 2 -261 16 -285 28 -47 76 -63 199
-68 128 -5 182 7 228 48 l32 28 3 267 c3 247 2 268 -15 281 -16 12 -9 13 56
14 67 0 73 -1 55 -14 -18 -13 -19 -32 -24 -288 l-5 -275 -28 -36 c-54 -71
-164 -104 -320 -94 -150 9 -215 39 -254 117 -22 42 -23 55 -23 293 0 253 -5
287 -38 287 -33 0 -60 -30 -186 -205 l-126 -175 0 -134 c0 -128 1 -136 22
-150 21 -15 18 -16 -57 -16 -59 1 -75 3 -62 11 15 9 17 27 17 154 l0 144 -116
153 c-64 84 -133 170 -155 191 l-38 37 92 0 c81 -1 90 -2 74 -14z m1491 -2
c-15 -16 -8 -35 109 -268 l126 -251 126 254 c84 170 122 255 114 258 -37 13
-3 23 77 23 l90 0 -20 -20 c-19 -19 -20 -33 -20 -325 0 -287 1 -306 19 -324
19 -19 18 -19 -32 -23 -29 -1 -62 -2 -74 0 -22 3 -22 3 -2 23 18 18 19 35 19
284 0 146 -3 265 -8 265 -4 0 -72 -129 -151 -287 l-143 -288 -149 295 -148
295 0 -274 c-1 -242 1 -277 16 -293 15 -17 13 -18 -52 -18 -65 0 -67 1 -52 18
15 16 17 54 17 327 0 273 -2 311 -17 327 -15 17 -13 18 78 18 87 0 92 -1 77
-16z m-288 -989 l0 -45 -3585 0 -3585 0 0 45 0 45 3585 0 3585 0 0 -45z
m-5835 -244 c-14 -14 -17 -14 -25 -1 -13 21 8 44 27 28 12 -10 12 -14 -2 -27z
m395 14 c0 -19 -20 -29 -32 -17 -8 8 -7 16 2 26 14 17 30 12 30 -9z m693 -11
c-3 -8 -9 -14 -13 -14 -14 0 -22 20 -16 37 5 12 9 13 21 3 7 -6 11 -18 8 -26z
m2152 -3 c-14 -14 -17 -14 -25 -1 -13 21 8 44 27 28 12 -10 12 -14 -2 -27z
m85 14 c0 -8 -5 -17 -11 -21 -16 -9 -30 18 -17 33 12 15 28 8 28 -12z m525
-14 c-14 -14 -17 -14 -25 -1 -13 21 8 44 27 28 12 -10 12 -14 -2 -27z m1435
14 c0 -19 -20 -29 -32 -17 -15 15 -2 43 17 36 8 -3 15 -12 15 -19z m-1350 1
c0 -8 -5 -18 -11 -22 -14 -8 -33 11 -25 25 10 16 36 13 36 -3z m-3294 -110
c-25 -29 -46 -56 -46 -60 0 -4 22 -39 48 -79 68 -101 66 -97 43 -97 -14 0 -36
23 -72 77 -48 70 -53 75 -65 58 -8 -11 -14 -44 -14 -77 0 -51 -2 -58 -20 -58
-19 0 -20 7 -20 150 0 142 1 150 20 150 17 0 19 -8 22 -67 l3 -68 53 67 c48
61 82 86 90 66 2 -4 -17 -32 -42 -62z m-1461 -7 l34 -71 36 71 c26 53 40 71
55 71 20 0 20 -1 5 -30 -9 -16 -29 -53 -45 -80 -26 -43 -30 -61 -30 -120 0
-63 -2 -70 -20 -70 -18 0 -20 7 -20 65 0 58 -5 74 -46 150 -43 79 -44 85 -25
85 17 0 29 -16 56 -71z m373 59 c-3 -8 -27 -14 -61 -16 l-57 -3 0 -44 0 -44
57 -3 c78 -4 83 -26 6 -30 l-58 -3 0 -55 0 -55 63 -3 c46 -2 62 -7 62 -17 0
-12 -17 -15 -85 -15 l-85 0 0 150 0 150 81 0 c60 0 80 -3 77 -12z m206 -89
c34 -53 66 -105 73 -115 10 -15 12 4 12 99 1 97 4 117 16 117 13 0 15 -23 15
-150 0 -196 -7 -197 -110 -25 l-75 124 -3 -124 c-2 -102 -5 -125 -17 -125 -13
0 -15 25 -15 151 0 149 0 150 22 147 15 -2 40 -32 82 -99z m246 -49 c0 -127
-2 -150 -15 -150 -13 0 -15 23 -15 150 0 127 2 150 15 150 13 0 15 -23 15
-150z m150 15 l0 -135 65 0 c51 0 65 -3 65 -15 0 -12 -16 -15 -85 -15 l-85 0
0 150 c0 143 1 150 20 150 19 0 20 -7 20 -135z m240 -16 c0 -138 -1 -150 -17
-147 -16 3 -18 19 -21 138 -3 145 -1 160 23 160 13 0 15 -22 15 -151z m570
136 c0 -11 -13 -15 -54 -15 -44 0 -60 -5 -85 -26 -37 -30 -48 -80 -32 -135 16
-52 51 -74 120 -74 66 0 80 -20 22 -30 -46 -8 -46 -8 -29 -35 22 -35 -26 -80
-55 -51 -8 8 -5 11 10 11 28 0 38 16 17 28 -9 5 -14 15 -12 23 3 9 -10 21 -36
34 -102 50 -111 199 -17 262 42 28 151 34 151 8z m130 -135 c0 -143 -1 -150
-20 -150 -19 0 -20 7 -20 150 0 143 1 150 20 150 19 0 20 -7 20 -150z m313 78
c14 -40 31 -92 38 -115 12 -41 29 -58 29 -29 0 8 16 60 36 115 32 89 39 101
60 101 26 0 29 -14 40 -193 6 -102 5 -109 -12 -105 -17 3 -20 17 -24 115 -3
62 -9 115 -12 118 -3 4 -12 -11 -18 -32 -42 -128 -73 -203 -86 -203 -9 0 -27
43 -51 120 -21 66 -41 120 -45 120 -5 0 -8 -33 -8 -74 0 -107 -10 -166 -27
-166 -13 0 -14 18 -9 123 9 164 12 177 40 177 20 0 27 -11 49 -72z m454 60
c-2 -8 -23 -14 -48 -15 -24 -1 -50 -2 -56 -2 -9 -1 -13 -17 -13 -46 0 -49 -6
-45 79 -49 60 -4 48 -25 -16 -28 l-58 -3 -3 -57 -3 -58 66 0 c51 0 65 -3 65
-15 0 -12 -16 -15 -85 -15 l-85 0 0 150 0 150 81 0 c60 0 80 -3 76 -12z m291
0 c-3 -7 -23 -14 -46 -16 l-42 -3 0 -135 c0 -127 -1 -134 -20 -134 -19 0 -20
7 -20 135 l0 135 -27 1 c-50 2 -56 4 -60 17 -4 9 22 12 107 12 85 0 111 -3
108 -12z m198 -100 c66 -193 65 -188 44 -188 -13 0 -24 15 -36 45 l-17 46 -55
-3 -55 -3 -15 -42 c-9 -30 -19 -43 -32 -43 -20 0 -21 -3 35 165 43 131 45 135
70 135 21 0 28 -13 61 -112z m184 -23 l0 -135 65 0 c51 0 65 -3 65 -15 0 -12
-16 -15 -80 -15 l-80 0 0 150 c0 127 2 150 15 150 13 0 15 -22 15 -135z m533
129 c17 -17 -7 -29 -56 -26 -65 4 -101 -20 -118 -80 -8 -33 -8 -49 5 -83 21
-53 53 -71 123 -68 40 1 53 -2 53 -12 0 -9 -15 -17 -40 -21 -39 -6 -50 -17
-30 -29 6 -3 10 -17 10 -30 0 -27 -38 -44 -62 -29 -9 6 -6 10 11 14 28 6 41
30 16 30 -11 0 -15 6 -11 18 5 15 -3 23 -35 38 -55 24 -79 65 -79 132 0 100
51 152 151 152 31 0 58 -3 62 -6z m286 -20 c63 -53 67 -170 7 -230 -89 -89
-226 -26 -226 105 0 94 51 150 137 151 41 0 58 -5 82 -26z m327 -1 c-8 -16
-47 -75 -85 -133 l-71 -105 85 -3 c67 -2 85 -6 85 -17 0 -12 -20 -15 -110 -15
-68 0 -110 4 -110 10 0 6 36 65 80 132 44 67 80 124 80 127 0 3 -31 5 -70 3
-59 -3 -70 -1 -70 12 0 14 15 16 100 16 l101 0 -15 -27z m124 -83 c0 -104 1
-112 25 -135 30 -30 54 -31 89 -4 25 20 26 23 26 135 0 107 1 114 20 114 19 0
20 -7 20 -107 0 -88 -4 -114 -19 -139 -39 -63 -132 -69 -175 -11 -18 24 -22
46 -24 143 -4 110 -3 114 17 114 20 0 21 -5 21 -110z m380 2 c19 -59 37 -111
41 -115 3 -4 24 43 46 105 36 102 42 113 65 116 l26 3 6 -108 c4 -59 9 -127
11 -150 3 -36 1 -43 -14 -43 -15 0 -19 12 -25 77 -3 42 -6 101 -7 132 l0 56
-47 -130 c-30 -83 -52 -130 -61 -130 -9 0 -29 44 -57 125 l-42 125 -2 -67 c-2
-38 -4 -72 -5 -78 -1 -5 -3 -32 -4 -60 -1 -44 -4 -50 -22 -50 -18 0 -20 4 -16
33 4 17 9 85 13 150 l7 117 26 0 c24 0 28 -7 61 -108z m332 -24 l3 -133 63 -3
c46 -2 62 -7 62 -17 0 -12 -17 -15 -80 -15 l-80 0 0 150 c0 125 2 150 15 150
12 0 15 -24 17 -132z m366 120 c-3 -8 -27 -14 -61 -16 l-57 -3 0 -44 0 -45 55
0 c41 0 55 -4 55 -14 0 -11 -15 -16 -52 -18 l-53 -3 -3 -57 -3 -58 66 0 c51 0
65 -3 65 -15 0 -12 -16 -15 -85 -15 l-85 0 0 150 0 150 81 0 c60 0 80 -3 77
-12z m257 -13 c32 -31 32 -66 0 -103 -21 -25 -23 -32 -11 -41 8 -6 19 -31 25
-55 6 -24 13 -51 17 -60 4 -12 0 -16 -15 -16 -15 0 -23 10 -31 43 -18 67 -35
87 -75 87 l-35 0 0 -65 c0 -58 -2 -65 -20 -65 -19 0 -20 7 -20 150 l0 150 70
0 c62 0 74 -3 95 -25z m143 -122 c-3 -131 -5 -148 -20 -151 -17 -3 -18 9 -18
147 0 145 1 151 20 151 20 0 20 -5 18 -147z"/>
<path d="M8948 7288 c-15 -40 -42 -116 -60 -168 l-34 -95 18 -50 c10 -27 34
-93 52 -145 19 -52 67 -186 107 -297 l73 -203 118 0 c134 0 130 -3 99 82 -58
161 -123 344 -150 421 -127 362 -182 512 -190 520 -4 4 -19 -25 -33 -65z"/>
<path d="M7475 7133 c-6 -2 -8 -72 -5 -188 l5 -185 244 -185 c164 -125 251
-185 268 -185 17 0 103 60 269 188 l244 187 0 188 0 188 -77 -59 c-319 -243
-404 -302 -434 -302 -24 0 -68 28 -206 133 -269 203 -298 224 -308 220z"/>
<path d="M8797 6868 c-110 -301 -177 -488 -183 -510 l-6 -28 206 0 c113 0 206
4 206 8 0 9 -12 43 -100 292 -29 80 -61 172 -72 205 -11 33 -23 64 -27 68 -5
4 -15 -11 -24 -35z"/>
<path d="M9149 6205 l16 -45 122 0 122 0 -16 45 -15 45 -123 0 -123 0 17 -45z"/>
<path d="M5520 5433 c0 -6 -17 -49 -39 -95 -70 -151 -101 -221 -101 -229 0 -5
69 -9 154 -9 l154 0 -74 162 c-71 155 -94 196 -94 171z"/>
<path d="M6660 5439 c0 -3 -34 -78 -75 -168 -41 -90 -75 -166 -75 -167 0 -2
70 -4 155 -4 85 0 155 2 155 4 0 5 -151 330 -156 335 -2 2 -4 2 -4 0z"/>
<path d="M8201 4152 c-11 -38 -21 -73 -21 -76 0 -3 20 -6 45 -6 25 0 45 1 45
3 0 1 -11 35 -24 76 l-23 73 -22 -70z"/>
<path d="M9140 4195 c-18 -19 -25 -40 -28 -85 -4 -58 -3 -61 32 -96 32 -32 41
-36 69 -30 51 10 80 46 85 108 3 44 0 59 -20 88 -20 30 -30 35 -69 38 -37 2
-49 -1 -69 -23z"/>
<path d="M10958 4224 c-5 -4 -8 -31 -8 -61 l0 -53 33 0 c45 0 77 25 77 59 0
16 -6 34 -14 40 -18 15 -79 25 -88 15z"/>
</g>
</svg>
