<svg xmlns="http://www.w3.org/2000/svg" viewBox="0 0 32 32">
  <path fill="#25D366" d="M16 0C7.164 0 0 7.163 0 16c0 2.822.734 5.61 2.125 8.057L0 32l8.17-2.132A15.962 15.962 0 0 0 16 32c8.837 0 16-7.163 16-16S24.837 0 16 0z"/>
  <path fill="#fff" d="M25.095 19.197c-.376-.187-2.213-1.094-2.55-1.219-.337-.125-.58-.188-.827.188-.248.376-.948 1.217-1.158 1.465-.21.248-.42.277-.776.094-.355-.188-1.5-.553-2.859-1.739-1.058-.946-1.773-2.112-1.977-2.472-.202-.359-.022-.555.168-.739.173-.173.386-.45.58-.676.193-.226.248-.39.386-.65.138-.258.068-.48-.034-.676-.103-.197-.942-2.257-1.287-3.098-.338-.841-.68-.729-.938-.738l-.797-.015c-.277 0-.731.103-1.114.517-.384.414-1.461 1.433-1.461 3.496 0 2.063 1.495 4.156 1.705 4.45.21.292 2.602 3.999 6.3 5.61.883.382 1.577.611 2.117.781.89.248 1.701.213 2.346.129.715-.107 2.201-.897 2.514-1.763.312-.866.312-1.606.216-1.763-.097-.156-.364-.247-.762-.433z"/>
</svg>
